<svg height="2025" viewBox="-344 20.76 531.626 515.175" width="2500" xmlns="http://www.w3.org/2000/svg"><path d="m31.46 32.435h1.307c1.508 0 2.955.145 2.955 1.723 0 1.438-1.522 1.804-2.998 1.804h-1.264zm-4.503 13.853h7.128c3.024 0 6.575-.866 6.575-4.941 0-2.083-1.159-3.307-3.41-3.77v-.051c1.886-.638 2.972-1.826 2.972-3.99 0-2.937-2.346-4.328-5.484-4.328h-7.78zm4.503-7.236h1.385c1.55 0 3.312.16 3.312 2.02 0 1.745-1.715 1.981-3.36 1.981h-1.337zm8.924 7.235h4.578l1.335-3.64h6.336l1.258 3.64h4.94l-6.511-17.08h-5.522zm11.188-6.875h-4.244l2.186-6.67h.044zm8.15-10.204h5.744l5.72 11.598h.045l-.074-11.598h4.115v17.08h-5.592l-5.917-11.673h-.042l.137 11.673h-4.135zm18.112 17.079h6.16c5.75 0 9.992-2.227 9.992-8.611 0-6.607-4.111-8.469-9.993-8.469h-6.16zm4.51-13.706h1.745c3.286 0 5.245 1.769 5.245 5.166 0 3.404-1.885 5.167-5.245 5.167h-1.745zm10.625 13.706h4.578l1.341-3.64h6.33l1.258 3.64h4.948l-6.511-17.08h-5.528zm11.195-6.875h-4.245l2.18-6.67h.048zm7.953-10.204h4.499v17.08h-4.499zm-85.159 20.793h5.798l5.768 11.61h.06l-.08-11.61h4.16v17.073h-5.652l-5.965-11.662h-.045l.145 11.662h-4.189zm16.622 17.074h4.627l1.34-3.638h6.41l1.271 3.638h5l-6.588-17.072h-5.578zm11.31-6.867h-4.286l2.201-6.68h.04zm8.245-10.207h7.173l2.96 11.35h.052l3.124-11.35h6.893v17.073h-4.441l.067-13.105h-.05l-3.69 13.105h-4.182l-3.503-13.105h-.046l.094 13.105h-4.451zm36.61 16.686c-1.296.32-2.74.7-5.065.7-4.56 0-9.814-2.312-9.814-8.771 0-5.94 4.155-8.912 9.782-8.912 1.739 0 3.428.406 5.063.89l-.37 3.692c-1.458-.805-2.879-1.2-4.443-1.2-3.228 0-5.34 2.349-5.34 5.53 0 3.356 2.376 5.388 5.704 5.388 1.49 0 3.008-.399 4.256-.886zm.695-8.137c0 5.433 2.98 8.835 8.567 8.835 5.57 0 8.564-3.402 8.564-8.834 0-5.48-2.937-8.846-8.564-8.846-5.635 0-8.568 3.366-8.568 8.846m4.703 0c0-2.97 1.1-5.464 3.865-5.464 2.764 0 3.865 2.493 3.865 5.464 0 2.8-1.1 5.456-3.865 5.456s-3.865-2.657-3.865-5.456" fill="#fff"/><g stroke="#000" stroke-width=".216"><path d="m-102.91 342.266-10.21-40.865-230.88 169.59 79.68-24.519-20.43 28.606 181.85-132.81z" fill="#305b77"/><path d="m-55.255 462.966-24.982-40.109 8.214-1.669 20.231 34.646 30.32-1.45 8.114 18.649-9.993-14.189-24.18.997 20.301 4.788 6.78 15.998-10.373-13.376-17.374-3.432 11.008 8.615 1.2 9.732-4.884-9.46-12.144-6.175-14.87 8.167.821 10.546-4.157-11.871 15.969-10.406z" fill="#1a1a1a"/><path d="m8.015 161.806c18.223-29.938 119.69-25.625 126.09 1.798 24.691 48.315 11.615 104.86-29.522 129l-239.593 98.042-83.77 46.994 140.981-134.85 85.816-140.98z" fill="#305b77"/><path d="m-84.045 502.246-20.685-60.218 10.698.283 16.181 51.611 38.249 7.231 5.244 26.944-8.76-21.652-30.462-5.975 24.099 12.406 4.272 23.059-9.447-20.697-20.799-9.745 11.489 14.635-1.053 13.145-3.619-13.899-13.548-11.771-20.714 6.249-1.74 14.1-2.08-16.846 22.675-8.859z" fill="#1a1a1a"/></g><path d="m-7.095 58.46 34.101-18.66h49.545l18.66 22.52 12.225 39.904c8.101 18.55 18.436 37.235 22.139 52.122 58.051 166.71-161.45 146.53-193.82 274.73l-9.89 5.738-49.775-48.672c-30.74 8.474 69.551-27.165 39.623-11.403l-4.659 84.167-10.234 2.612-50.44-85.568c-10.17.068-14.62 2.716 3.91-1.756l12.5-3.016c54.912-80.43 54.835-179.81 138.166-230.21 9.094-5.501 21.814-9.964 22.546-21.664.847-13.55-27.538-47.064-34.59-60.834z" fill="#b7c4c8"/><g stroke="#000" stroke-width=".216"><path d="m-37.525 168.596c23.405-30.234 126.93-36.81 133.32-9.388 22.535 117.57-106.77 179.27-189.09 238.4l-90.215 18.986-97.16 27.841 34.02-49.78 123.3-85.073 85.818-140.98zm50.39-91.246c10.537 10.754 17.023 28.544 31.611 32.244l20.97 5.32c-3.126-6.59-21.391-33.414-6.886-38.184 24.534-8.07 23.425 35.674 23.966 47.764 4.383-8.76 8.794-21.53 14.457-23.67 10.67-4.02 16.086 16.2 21.983 26.92l-8.644-28.71c-7.281-16.994-10.229-49.194-34.235-60.184-39.525-18.09-59.775 2.26-84.193 19.41l11.58 19.72 9.39-.63z" fill="#305b77"/><path d="m50.595 55.23c1.755-.11.51 20.1-18.696 16.09l-10.889-2.26c14.174-8.54 5.477-28.33 29.584-13.83z" fill="#fff"/><path d="m-29.595 91.694 44.026-.73-11.001-15.494-25.125 8.33-7.899 7.894z" fill="#333"/><path d="m-6.835 57.56 11.566 20.15c-23.745 7.36-26.376 3.59-38.429 24.254 1.401-24.274 9.279-27.324 26.863-44.404z" fill="#241c1c"/><path d="m-21.625 70.92 6.452-9.8 9.894-5.12 4.446 8.98 6.417 13.1-27.21-7.16z" fill="#f9b235"/></g></svg>